<?xml version="1.0" encoding="UTF-8"?> <svg xmlns="http://www.w3.org/2000/svg" width="93" height="24" viewBox="0 0 93 24" fill="none"><g clip-path="url(#clip0)"><path d="M36.6771 10.2438C36.6042 9.2926 35.875 8.63406 34.9271 8.63406C34.8542 8.63406 34.7813 8.63406 34.7083 8.63406L29.6771 9.36577C29.8958 7.97552 30.1146 6.73162 30.1875 5.63406C30.3333 4.75601 29.75 3.87796 28.8021 3.73162C28.6563 3.73162 28.4375 3.73162 28.2917 3.73162L27.8542 3.80479C27.6354 3.80479 27.4896 4.0243 27.4167 4.24382L26.6146 9.80479L23.625 10.2438C23.8438 8.85357 24.0625 7.60967 24.1354 6.51211C24.2813 5.63406 23.625 4.75601 22.75 4.60967C22.6042 4.60967 22.3854 4.60967 22.2396 4.60967L21.875 4.75601C21.6563 4.75601 21.5104 4.97552 21.4375 5.19504L20.6354 10.756L18.3021 11.1219C18.1563 11.1219 18.0833 11.2682 18.0833 11.4145V11.6341C18.1563 12.5853 18.8854 13.317 19.8333 13.2438C19.9063 13.2438 19.9792 13.2438 20.0521 13.2438H20.2708L19.5417 18.0731V18.2194C19.1042 19.1706 18.4479 19.9755 17.6458 20.6341C16.5521 21.4389 16.1146 20.6341 16.1875 19.8292C16.5521 16.8292 16.9896 16.5365 17.3542 13.0243C17.5 12.1463 16.9167 11.2682 15.9688 11.1219C15.8229 11.1219 15.6042 11.1219 15.4583 11.1219L15.0208 11.195C14.8021 11.195 14.6563 11.4145 14.5833 11.6341L13.3438 19.0243C12.9792 21.3658 13.4896 22.9024 15.4583 22.6097C15.5313 22.6097 17.5729 22.5365 19.4688 20.1219C19.4688 21.0731 20.1979 21.8048 21.1458 21.8048C21.2917 21.8048 21.5104 21.8048 21.6563 21.7316C23.1875 21.5121 24.5729 20.7072 25.5208 19.3902C25.5938 20.2682 26.3958 20.9267 27.2708 20.8536C27.4167 20.8536 27.4896 20.8536 27.6354 20.7804C28.5104 20.6341 29.3125 20.2682 29.9688 19.6828C30.1146 19.6097 30.1146 19.3902 30.0417 19.2438C29.8229 18.9511 29.6042 19.0243 29.3125 19.0975C28.8021 19.317 28 19.9024 28.2917 17.9267C28.5104 16.3902 28.875 14.1219 29.2396 11.8536L36.3854 10.756C36.5313 10.756 36.6042 10.6097 36.6042 10.4633V10.2438H36.6771ZM25.5938 17.1219C25.5938 17.3414 25.5208 17.4877 25.5208 17.7072C25.0833 18.5121 24.5 19.1706 23.8438 19.6828C22.75 20.4877 22.3125 19.6828 22.3854 18.878C22.5313 17.3414 22.9688 15.0731 23.3333 12.8048L26.3229 12.3658L25.5938 17.1219Z" fill="black"></path><path d="M16.625 5.56087C15.3125 5.63405 14.5104 7.46331 14.875 8.56087C15.0208 8.9999 15.3854 9.29258 15.8229 9.43892C16.2604 9.51209 16.6979 9.36575 17.0625 9.07307C17.7917 8.4877 18.1562 7.46331 17.9375 6.58526C17.7917 5.92673 17.2812 5.56087 16.625 5.56087Z" fill="black"></path><path d="M13.4896 13.9755V13.756C13.4167 12.8048 12.6875 12.1462 11.7396 12.1462C11.6667 12.1462 11.5938 12.1462 11.5209 12.1462L8.02085 12.6584L9.04168 5.19501C9.1146 4.90233 9.04168 4.60965 8.89585 4.31696C12.8334 3.58526 18.8854 2.56087 20.4167 2.48769C20.6354 2.48769 20.8542 2.26818 20.8542 1.9755V1.75599C20.7084 0.219402 19.3229 -0.146452 18.0104 -0.000110416C7.00002 1.17062 -1.60415 4.31696 0.3646 8.04867C0.58335 8.48769 0.947933 8.78038 1.31252 9.07306C1.60418 9.29257 2.26043 9.7316 2.40627 9.58526C2.5521 9.43891 2.5521 9.07306 2.33335 8.85355C2.1146 8.63404 1.75002 8.41452 1.6771 8.12184C1.53127 7.68282 1.6771 7.17062 2.04168 6.80477C2.84377 5.85355 4.66668 5.41452 5.83335 4.9755L6.19793 4.90233L5.03127 13.0975L3.71877 13.317C3.57293 13.317 3.50002 13.4633 3.50002 13.6096V13.8292C3.50002 14.5609 4.01043 15.1462 4.7396 15.3657L3.8646 21.8779C3.64585 22.8292 4.37502 23.8535 5.39585 23.9999C5.6146 23.9999 5.83335 23.9999 6.0521 23.9999L6.27085 23.9267C6.41668 23.9267 6.56252 23.7804 6.56252 23.634L7.72918 15.0731L13.2709 14.2682C13.4167 14.195 13.4896 14.1218 13.4896 13.9755Z" fill="black"></path></g><path d="M46.5 18.5152H48.4806V5.46522H46.5V18.5152Z" fill="black"></path><path d="M55.4276 18.5152H57.313V5.46522H55.3133V13.5848L52.6281 5.46522H50.6474V18.5152H52.6281V9.98478L55.4276 18.5152Z" fill="black"></path><path d="M58.6822 17.4978C59.4249 18.3196 60.4343 18.75 61.7103 18.75C63.729 18.75 65.0431 17.2239 65.0431 15.1304C65.0431 12.9196 63.7671 11.8435 62.6434 10.9239C61.7864 10.2196 61.0437 9.59348 61.0437 8.61522C61.0437 7.67609 61.615 7.06956 62.3578 7.06956C63.0053 7.06956 63.5766 7.30435 64.0528 7.81304L64.8526 6.24783C64.2051 5.60217 63.291 5.25 62.3006 5.25C60.2819 5.25 59.025 6.79565 59.025 8.71304C59.025 10.8457 60.2438 11.8239 61.3294 12.7043C62.2245 13.4283 63.0243 14.0739 63.0243 15.2478C63.0243 16.2457 62.4149 16.9304 61.596 16.9304C60.8723 16.9304 60.0724 16.5587 59.5773 15.8935L58.6822 17.4978Z" fill="black"></path><path d="M66.6605 18.5152H68.6412V5.46522H66.6605V18.5152Z" fill="black"></path><path d="M70.8079 18.5152H73.6646C76.5404 18.5152 77.7021 15.7761 77.7021 12C77.7021 8.26304 76.5213 5.46522 73.6456 5.46522H70.8079V18.5152ZM72.7886 16.7152V7.26522H73.6456C75.0359 7.26522 75.6643 9.04565 75.6643 12C75.6643 14.8957 75.0549 16.7152 73.6456 16.7152H72.7886Z" fill="black"></path><path d="M79.4747 18.5152H84.6739V16.7152H81.4554V12.763H84.5406V10.963H81.4554V7.26522H84.6739V5.46522H79.4747V18.5152Z" fill="black"></path><path d="M90.867 18.5152H93L91.1908 13.037C91.9335 12.6848 92.8857 11.687 92.8857 9.43696C92.8857 7.05 91.5145 5.46522 89.6291 5.46522H86.4677V18.5152H88.4483V13.5261H89.3625L90.867 18.5152ZM90.848 9.49565C90.848 10.8065 90.3338 11.7261 89.3434 11.7261H88.4483V7.26522H89.3434C90.3338 7.26522 90.848 8.16522 90.848 9.49565Z" fill="black"></path><defs><clipPath id="clip0"><rect width="36.75" height="24" fill="white"></rect></clipPath></defs></svg> 