<?xml version="1.0" encoding="UTF-8"?> <svg xmlns="http://www.w3.org/2000/svg" width="247" height="311" viewBox="0 0 247 311" fill="none"><g clip-path="url(#h01e9dj4ca)"><path d="M165.391 105.103c-.096.892-.452 1.673-.872 2.46-1.807 3.382-2.875 7.011-3.632 10.754-.443 2.199-.653 4.461-1.693 6.518-1.086 2.139-2.875 3.236-5.129 3.707-.689.146-1.392.219-2.141.334.16.832.548 1.581.69 2.413.447 2.701-.105 5.142-1.611 7.414-1.187 1.791-3.03 2.486-4.929 3.094-1.601.512-3.253.873-4.818 1.723.456.471.944.297 1.346.215a146.67 146.67 0 0 0 5.033-1.161c.379-.091.694-.146 1.045.092 3.856 2.628 8.287 3.962 12.567 5.658 3.906 1.545 7.908 2.907 11.427 5.307 2.806 1.915 5.293 4.173 7.333 6.897.42.562.798.631 1.451.388 2.742-1.014 4.563-3.076 6.206-5.338 4.216-5.8 7.068-12.213 8.328-19.275 1.022-5.727 4.449-9.612 9.154-12.578 4.011-2.528 8.378-3.972 13.124-4.425 3.011-.288 6.014-.292 9.012-.169a22.98 22.98 0 0 1 8.848 2.153c-5.571-.485-11.111-.206-16.51 1.563-.771.251-1.528.544-2.277.846-.255.1-.661.146-.575.566.092.448.479.279.753.243 1.639-.215 3.281-.407 4.915-.681 7.31-1.23 14.329-.11 21.151 2.596.438.173.835.443 1.241.74-2.378-.242-4.755-.297-7.137-.334-4.796-.073-9.515.362-14.014 2.199a7.507 7.507 0 0 0-.83.379c-.247.137-.657.197-.539.599.105.343.466.206.707.178 2.191-.224 4.381-.187 6.576-.004 6.174.512 11.837 2.413 16.87 6.093.156.114.261.297.525.612-8.515-2.537-16.943-3.643-25.458-.626 4.212-.526 8.25.311 12.211 1.554 3.97 1.248 7.73 2.934 10.925 6.047-7.735-3.702-15.652-3.346-23.666-2.176 7.74.713 15.128 2.222 20.645 8.346-.448-.47-1.1-.585-1.657-.877a16.197 16.197 0 0 0-1.743-.809c-3.126-1.179-6.361-1.778-9.697-1.934-3.007-.141-6.005-.182-9.012-.018-4.144.229-7.95 1.504-11.518 3.538-8.515 4.845-14.904 11.751-19.554 20.326-1.264 2.326-1.875 4.858-2.062 7.482-.073 1.033.16 2.084.169 3.126.027 2.167.141 4.343-.032 6.495-.406 4.987-1.935 9.613-4.751 13.795-1.793 2.655-3.719 5.215-5.918 7.532-2.674 2.82-5.928 4.941-9.181 7.035-1.041.667-2.031 1.421-3.172 1.924-.493.219-.616.672-.721 1.143-.561 2.436-.881 4.863-.589 7.39.662 5.659 2.095 11.098 4.719 16.144 1.912 3.684 4.107 7.226 6.388 10.7 2.259 3.433 2.332 7.016.42 10.604-2.044 3.835-4.193 7.615-6.261 11.441a74.867 74.867 0 0 0-4.12 8.949c-1.885 4.955-3.71 9.932-5.563 14.901-.337.905.092 1.892-.342 2.788-.187.388-.278.822-.402 1.243-.182.626-.511.951-1.236.827-.575-.1-1.132.16-1.661.38-.968.397-1.908.831-2.944 1.06-1.022.229-1.884.914-1.998 1.943-.215 1.91-1.492 2.5-3.03 3.03-3.943 1.357-7.84.791-11.746-.119-.853-.196-1.141-.896-.977-1.527.457-1.732.548-3.537 1.169-5.242.387-1.07.972-1.915 1.875-2.56 2.159-1.54 4.385-2.989 6.402-4.717 2.41-2.057 4.888-4.058 7.083-6.335 1.049-1.088 1.551-2.728 2.222-4.154a840.675 840.675 0 0 0 5.635-12.191c.936-2.075 1.397-4.287 1.748-6.545.443-2.838.151-5.672.196-8.501.028-1.536-.711-2.935-1.442-4.288-2.797-5.192-7.004-8.949-11.942-12.021-2.318-1.444-4.64-2.902-6.762-4.648-4.144-3.41-6.772-7.807-8.748-12.729-1.958-4.873-2.382-9.951-2.633-15.111-.32-6.545.515-12.885 2.797-19.028.046-.119.023-.261.046-.489-1.839 1.664-2.788 3.693-3.391 5.96-1.734 6.513-1.729 13.086-.99 19.727.557 5.001 2.222 9.631 4.467 14.046 2.455 4.827 6.129 8.611 10.71 11.541 2.615 1.673 5.28 3.286 7.735 5.211 3.559 2.792 6.211 6.28 8.246 10.288.379.75.283 1.34-.11 2.066-2.172 4.004-4.129 8.118-5.421 12.501-.744 2.528-1.2 5.129-1.716 7.711a147.734 147.734 0 0 1-1.428 6.454c-.721 2.934-2.733 4.758-5.33 6.088-1.971 1.01-4.002 1.906-5.832 3.186-.839.585-1.601 1.243-2.245 2.029-1.077 1.303-2.414 1.988-4.116 2.02-1.396.028-3.03 1.573-3.272 3.013-.136.822-.328 1.65-.36 2.477-.032.864-.488 1.069-1.232 1.248-3.505.854-6.959.749-10.363-.425-1.611-.558-1.611-.723-1.223-2.377.588-2.528 1.953-4.699 3.326-6.806.813-1.243 2.414-1.769 3.733-2.5 3.943-2.18 7.79-4.502 11.312-7.341 1.082-.873 1.785-2.015 2.419-3.199 1.999-3.716 3.386-7.684 4.604-11.71.753-2.482 1.492-4.969 2.259-7.446.758-2.459.351-4.818-.214-7.126-1.242-5.078-4.053-9.383-7.219-13.451-2.382-3.058-5.006-5.933-7.261-9.078-2.843-3.958-4.691-8.469-6.447-12.999-1.415-3.656-2.282-7.473-2.944-11.317-.698-4.059-.776-8.136.621-12.108.146-.416.155-.662-.256-.923-4.504-2.838-8.62-6.189-12.585-9.726-.52-.467-1.223-.65-1.679-1.244-.279-.361-.785-.292-1.233-.123a25.474 25.474 0 0 1-10.217 1.673c-.524-.023-.689-.087-.588-.69a6.85 6.85 0 0 1 1.496-3.264c2.004-2.427 4.144-4.731 6.293-7.03.201-.214.703-.42.383-.786-.196-.224-.543.101-.798.233-1.054.553-1.949 1.344-2.88 2.071-.47.37-.775.343-1.2-.064-3.404-3.241-7.191-6.07-10.294-9.631-.31-.356-.676-.379-1.091-.37-1.857.046-3.719.133-5.563-.196-.36-.064-.734-.142-1.067-.293-1.223-.548-1.433-1.705-.402-2.578.794-.672 1.68-1.257 2.583-1.782.698-.407.862-.7.315-1.431-2.168-2.898-4.258-5.855-6.384-8.785-.256-.352-.502-.631.009-.996 4.01-2.843 7.506-6.312 11.34-9.37a52.785 52.785 0 0 1 7.319-4.909c.297-.165.593-.329.867-.526.178-.123.488-.219.37-.521-.11-.279-.397-.215-.621-.178-1.488.219-2.88.713-4.216 1.389-3.195 1.623-5.955 3.849-8.634 6.194-2.29 2.006-4.6 3.99-7 5.864-3.404 2.66-5.184 2.623-8.962-.11-4.984-3.602-9.236-7.985-13.293-12.56-4.454-5.028-8.917-10.047-13.375-15.065-3.395-3.826-6.808-7.679-9.551-12.049-.516-.818-.689-.036-.89.202-2.213 2.651-4.075 5.548-5.84 8.501-2.264 3.789-4.71 7.478-6.6 11.486-.04.092-.113.169-.145.265-.95 2.761-1.182 3.182 1.159 4.745 1.414.946 2.852 1.764 4.54 2.121 2.022.425 2.446 1.055 2.674 3.076.333 2.952.37 5.864-.63 8.707-.392 1.115-.89 2.185-1.592 3.144-1.004 1.367-2.46 1.81-3.91 1.075-2.552-1.294-4.874-2.894-6.595-5.243-1.086-1.481-1.61-3.25-2.46-4.859-.903-1.714-1.88-3.35-3.28-4.708-.589-.566-1.2-1.005-2.013-1.279-1.962-.658-2.97-2.615-2.91-4.388.072-2.203.182-4.342 1.578-6.148.986-1.28 2.03-2.527 3.276-3.579 1.429-1.206 2.542-2.71 3.788-4.086 3.632-4.008 6.475-8.57 9.355-13.118 1.592-2.518 2.93-5.114 3.814-7.985.621-2.02 1.812-3.775 3.697-4.913 4.645-2.811 9.062.795 9.82 4.561.068.343.077.69.397.882 2.277 1.399 3.618 3.707 5.407 5.581 3.546 3.725 7.192 7.345 11.098 10.696.2.169.42.32.643.466.156.105.32.1.448-.05.127-.147.114-.307-.014-.448-.292-.329-.58-.663-.88-.978-3.487-3.639-6.969-7.286-10.482-10.902-.726-.749-1.118-1.622-1.493-2.568-1.15-2.926-2.29-5.846-3.116-8.881-.046-.16-.137-.306-.201-.466-1.155-2.839-1.57-3.05-4.577-2.423-1.123.233-2.273.178-3.413.338-3.09.44-6.197.736-9.305 1.065-.703.074-1.42.055-2.126.083-.315.013-.594.018-.52.507.474 3.3.698 6.641 1.633 9.864.215.74.037 1.298-.306 1.915-1.168 2.107-2.555 4.068-3.892 6.06-1.675 2.501-3.24 5.078-5.284 7.314-.543.594-.79.749-1.1-.128-.88-2.487-1.711-4.992-2.346-7.556-.032-.128-.11-.32-.054-.384.798-.896.004-1.522-.292-2.29-.794-2.061-.434-4.168.278-6.147.94-2.624 1.291-5.302 1.287-8.054-.005-2.706.082-5.412-.183-8.122-.223-2.322.977-3.77 3.067-4.73 1.528-.705 3.039-.695 4.609-.769a70.966 70.966 0 0 0 4.832-.393c1.16-.137 2.29.06 3.432.142 3.532.256 6.918-.407 10.272-1.472 1.775-.562 3.577-1.097 5.498-.96 1.835.128 3.464.709 4.86 1.934 1.908 1.673 3.345 3.675 4.417 5.97 2.182 4.643 4.23 9.355 7 13.702 1.46 2.295 2.834 4.644 4.244 6.97.155.252.26.636.584.631.443 0 .27-.461.37-.717 1.825-4.635 3.874-9.082 7.338-12.835 3.45-3.739 7.11-7.158 11.298-10.042 1.438-.992 2.775-2.134 4.057-3.336 1.994-1.87 3.998-3.73 6.07-5.513 1.788-1.535 2.91-3.45 3.764-5.617 1.15-2.92 1.926-5.942 2.51-9.004.397-2.098-.292-4.155-.808-6.235-.566.275-.707.85-1.018 1.262-1.857 2.454-4.367 3.748-7.305 4.46-2.642.645-5.303.755-7.995.814-2.693.06-5.34.476-7.64 2.098-.378.265-.83.43-1.259.627-.62.283-1.104.626-1.414 1.325-.593 1.344-3.386 2.573-4.997 2.308-.862-.142-1.73-.288-2.565-.525-1.656-.471-2.65-1.678-3.253-3.227-.196-.503-.434-.837-.931-1.097-1.67-.873-1.985-1.97-1.16-3.675.179-.366.311-.75.512-1.097.634-1.093.301-1.993-.972-2.167-.958-.132-1.88-.105-2.35-1.174-.52-1.189-.26-2.304.192-3.428.725-1.797 2.08-3.049 3.773-3.785 4.381-1.901 7.594-5.206 10.752-8.607 3.705-3.985 7.35-8.03 11.43-11.646 2.606-2.308 5.371-4.401 8.506-5.965.274-.137.575-.2.64-.566.337-1.92 1.103-3.725 1.482-5.65.63-3.167.799-6.367 1.009-9.566.032-.512-.023-1.143.561-1.275.653-.147.917.475 1.109.973 1.232 3.236 3.098 6.038 5.494 8.534 1.36 1.417 1.917 3.245 1.862 5.21-.014.576.214.787.67 1.065 1.739 1.07 3.551 1.248 5.586 1.093 4.23-.325 8.387.425 12.458 1.581 2.738.777 5.439 1.691 8.186 2.427 2.478.667 5.011 1.065 7.598.832 2.519-.229 4.627-1.38 6.535-2.966.255-.21.497-.434.816-.59-.415 1.98-1.574 3.474-3.239 4.484-3.605 2.185-7.507 2.81-11.687 2.125-3.495-.571-6.895-1.654-10.445-1.92-1.848-.137-3.628.147-5.376.727.224.503.607.617 1.091.613 4.513-.023 8.834 1.051 13.188 2.12 5.818 1.427 11.641 1.386 17.189-1.302 1.369-.663 2.364-1.883 3.747-2.715.237.613-.091 1.065-.342 1.495-1.593 2.747-4.089 4.342-6.996 5.38-4.905 1.75-9.939 1.663-15.017 1.055-2.1-.251-4.18.01-6.216.558-.182.05-.552-.069-.515.302.032.329.251.553.62.539.981-.032 1.949.146 2.921.233 2.186.192 4.321.663 6.484.973 6.088.873 11.983.494 17.569-2.376 1.592-.818 3.135-1.687 4.581-3.017.064 1.038-.392 1.682-.899 2.217-3.03 3.19-6.68 5.37-10.988 6.303-3.441.745-6.982.75-10.468 1.133-1.839.201-3.623.64-5.335 1.527h1.83c3.45-.014 6.877.256 10.318.498 4.33.311 8.428-.772 12.27-2.779 1.762-.919 3.601-1.728 5.111-3.076.155-.137.347-.425.593-.233.288.229.064.535-.063.731-.845 1.317-1.89 2.455-3.053 3.506-4.253 3.849-9.341 5.375-14.959 5.54-3.157.091-6.251.585-9.199 1.782-.123.05-.274.06-.379.137-.201.142-.598.156-.493.522.082.292.388.178.612.187.237.005.474 0 .712-.014 3.856-.21 7.693.242 11.545.26 2.605.014 5.174-.21 7.743-.721 3.532-.704 6.499-2.395 9.132-4.777.652-.59 1.3-1.184 2.003-1.824.246.421.137.778-.023 1.152a9.925 9.925 0 0 1-1.757 2.71c-2.934 3.278-6.662 5.225-10.81 6.477-3.085.928-6.275 1.29-9.419 1.902-1.729.334-3.39.896-5.028 1.54-.174.069-.439.078-.429.343.013.292.273.238.46.242 4.29.064 8.611.49 12.855-.045 5.554-.7 10.938-2.194 15.483-5.773.105-.083.224-.147.352-.224-.064.763-.379 1.348-1.118 2.221-1.981 2.35-4.618 3.725-7.375 4.868-5.64 2.345-11.54 3.739-17.55 4.744-1.264.21-2.546.43-3.833 1.056.621.31 1.132.174 1.615.165 3.108-.069 6.22-.105 9.323-.252 3.774-.173 7.566-.31 11.18-1.595 1.579-.562 3.254-.923 4.65-2.048-.1.86-.662 1.413-1.122 2.011-1.894 2.464-4.669 3.264-7.502 3.826-4.267.846-8.607 1.326-12.819 2.468a23.72 23.72 0 0 0-5.412 2.226c-.232.133-.657.233-.465.645.16.338.484.119.721.078 4.312-.746 8.67-.668 13.019-.85 2.916-.124 5.855-.234 8.784-1.308-.885 1.376-2.149 2.039-3.395 2.692-2.587 1.358-5.417 1.86-8.273 2.203-4.107.494-8.027 1.504-11.481 3.9-.192.132-.356.305-.534.46-.164.07-.31.211-.183.357.178.206.402.124.566-.082 3.099-.443 6.192-.914 9.295-1.32 2.506-.33 5.029-.536 7.402-1.843-.251.663-1.693 1.86-2.688 2.304-2.861 1.275-5.74 2.5-8.583 3.812-2.323 1.074-4.427 2.486-5.96 4.589-1.328 1.819-1.652 3.908-1.287 6.083.11.659-.182 1.55.311 1.925.497.374 1.277-.156 1.948-.183a16.17 16.17 0 0 1 4.614.443c.648.16 1.25.146 1.788-.356.475-.444 1.096-.65 1.721-.837-.06-.498-.484-.663-.758-.928-1.077-1.055-1.218-2.166-.442-3.68.31-.602.757-1.119 1.273-1.562 2.87-2.478 5.654-5.06 7.926-8.1 2.245-3.007 5.198-2.77 7.867-1.183.63.374 1.369 1.151 1.867 1.019.634-.17.479-1.275.716-1.961.479-1.39 2.085-2.144 3.833-1.458 3.135 1.23 6.156 2.72 8.529 5.22.388.411.584.04.798-.11 1.589-1.088 3.135-2.226 4.737-3.29a219.734 219.734 0 0 1 5.535-3.548c1.479-.923 2.109-.836 3.345.457.393.412.625.453 1.168.142 2.857-1.645 5.846-3.035 8.607-4.863 1.925-1.276 3.335-2.464 3.632-5.151.493-4.448 1.657-8.822 2.19-13.288.119-.991-.168-1.613-.926-2.253-1.652-1.394-2.989-3.017-3.153-5.343-.064-.932.109-1.682.908-2.199.484-.31.657-.69.548-1.275-.379-2.002.584-2.527 2.181-3.007.835-.252 1.702-.407 2.56-.594 2.304-.508 3.961.612 4.435 2.943.352 1.723.306 3.437-.036 5.138-.785 3.94-.452 7.884-.11 11.829.27 3.117.133 6.22-.237 9.324-.16 1.344-.379 2.683-.42 4.031-.045 1.477-.634 2.61-1.583 3.716-2.446 2.843-5.394 5.097-8.31 7.396-1.456 1.147-2.697 2.555-4.285 3.542-.356.224-.401.58-.438.969-.078.873-.196 1.741-.287 2.61-.087.85-.635 1.39-1.246 1.887-2.93 2.382-5.896 4.717-9.049 6.797-2.058 1.358-3.742 3.044-4.787 5.352-.338.75.059 1.55-.415 2.217-.516.37-1.013.178-1.534-.009-2.902-1.06-5.343-2.889-7.812-4.667-4.079-2.93-5.48-7.304-6.251-11.97-.201-1.203.127-2.523-.959-3.479a.488.488 0 0 1-.073-.653c.16-.22.493-.22.653-.1 1.186.863 1.848-.211 2.678-.686.251-.147.416-.32.402-.64-.032-.878-.032-1.76-.078-2.638-.022-.406-.141-.795-.684-.43-2.154 1.44-3.765 3.347-4.7 5.76-.826 2.13-.767 4.374-.539 6.609.425 4.11 1.757 7.848 4.696 10.842 2.24 2.285 5.047 3.835 7.703 5.567.447.292.949.571 1.46.681.607.132.794.521.94 1.01l.014.027zM124.6 97.731c-.47-.128-.598.018-.479.498.214.873.401 1.76.552 2.647a52.975 52.975 0 0 0 2.368 8.981c.657 1.842.872 1.856 2.35.548.356-.315.434-.539.137-.895-.201-.243-.233-.549-.287-.851-.388-2.175.209-4.072 1.642-5.708.689-.786 1.442-1.513 2.159-2.277.324-.347.497-.589-.183-.827-2.697-.932-5.485-1.513-8.255-2.12l-.004.004zM66.167 48.047c.461-.082.79-.329 1.109-.576 2.277-1.75 4.554-3.5 6.822-5.265a30.964 30.964 0 0 0 5.006-4.868c.142-.174.406-.32.178-.59-.173-.2-.37-.059-.548.033-.059.032-.118.068-.178.096-4.659 2.44-8.5 5.96-12.393 9.415-.265.233-.466.599-.57.942-.147.475.104.772.574.809v.004zm60.906 81.135c-.671-.142-1.191.046-1.679.238-4.376 1.714-8.155 4.31-11.249 7.861-.333.384-1.09.86-.556 1.417.593.617 1.118-.142 1.51-.516 2.934-2.775 6.256-5.024 9.619-7.217.79-.517 1.62-.974 2.355-1.783zm-42.62-97.795c1.154.091 2.276-.196 3.412-.315.507-.055.831-.224.648-.846-.447-1.508-2.925-3.007-4.453-2.665-1.068.238-1.785 1.628-1.584 3.246.155 1.243 1.132.329 1.68.571.082.037.2.005.3.005l-.004.004zm62.137 51.709c.009-.407-.251-.544-.561-.627-.653-.173-1.301-.352-1.958-.512-2.295-.562-2.277-.553-3.153 1.641-.228.576-.137.841.456 1.033 1.187.38 2.359.81 3.537 1.225.182.064.474.256.534.037.264-.987.794-1.86 1.14-2.793l.005-.004zM73.322 33.74c-1.255.713-2.185 1.696-3.162 2.628-1.734 1.66-3.473 3.314-5.161 5.014-.392.393-1.474.695-.88 1.39.524.617 1.236-.192 1.71-.572a40.84 40.84 0 0 0 5.43-5.306c.804-.95 1.561-1.934 2.068-3.15l-.005-.004zm-18.317 92.251c.041-.407-.223-.544-.406-.727-2.012-2.039-4.024-4.082-6.06-6.107-.205-.205-.397-.827-.821-.365-.315.347-.799.781-.224 1.385 1.803 1.878 3.642 3.707 5.869 5.087.502.311 1.008.64 1.633.722l.01.005zm-11.81-10.856c.133-1.133.019-2.011-.46-2.674-1.342-1.86-2.784-3.647-4.431-5.251-.22-.215-.516-.439-.803-.202-.279.229-.17.554.014.823 1.697 2.478 3.568 4.818 5.68 7.304zm54.942-70.855c-.068-.58-.082-1.197-.438-1.723-.255-.38-.63-.54-1.054-.384-.483.178-.37.562-.237.932.219.6.155 1.207.018 1.801-.233.988-.511 1.961-.74 2.948-.086.366-.378.864.129 1.08.42.177.748-.234.999-.54.967-1.189 1.155-2.633 1.323-4.114zm42.443 131.691c.078-.562.032-.859-.296-1.014-.397-.183-.676.073-.84.361-.995 1.759-1.857 3.583-2.409 5.535-.06.215-.156.493.136.621.219.096.37-.091.516-.228 1.584-1.518 1.958-3.68 2.898-5.275h-.005zm-60.586-56.763c-1.438-2.222-3.628-2.921-6.07-3.127-.488-.041-1.049.055-1.09.645-.036.539.493.672.94.731 2.145.293 4.098 1.257 6.224 1.746l-.004.005zm88.376 66.499c.11-.315.174-.411.169-.498-.15-2.336-1.492-4.141-2.687-6.002-.156-.242-.502-.402-.808-.182-.342.242-.26.594-.123.918.839 2.039 2.108 3.817 3.449 5.768v-.004zm-27.47-8.214c.155-.05.264-.059.333-.114 1.903-1.508 2.77-3.583 3.217-5.887.059-.306.018-.667-.342-.75-.448-.1-.671.229-.785.604-.525 1.755-1.433 3.341-2.186 4.996-.151.329-.361.658-.237 1.151zm5.024 36.251c-.58-.156-1.105.041-1.62.269-1.479.654-2.601 1.774-3.683 2.93-.287.306-.744.695-.356 1.115.425.462.867.046 1.223-.251a386.446 386.446 0 0 0 3.925-3.318c.214-.183.534-.311.511-.745zM15.556 140.161c-1.004 0-3.892 2.244-4.148 3.259-.068.265-.077.557.155.749.224.183.539.229.762.078 1.401-.946 2.679-2.034 3.692-3.396.283-.379.137-.718-.46-.69zm73.961-114.62c-1.757-1.371-3.746-1.17-5.763-.635-.466.123-.954.37-.808.973.133.558.648.512 1.09.448 1.849-.27 3.73-.324 5.486-.786h-.005zm-6.927 76.377c-.191-.128-.378-.215-.524-.352-1.634-1.554-3.678-1.856-5.796-1.906-.451-.01-1.086.018-1.095.626-.01.558.593.53 1.018.594.232.032.47.046.702.06 1.922.137 3.77.653 5.69.973l.005.005zm4.559-3.776c-.771-1.417-4.107-2.925-5.426-2.564-.314.087-.575.265-.593.608a.653.653 0 0 0 .498.686c1.775.493 3.509 1.17 5.516 1.27h.005zM6.11 125.97c-.2.027-.37.041-.53.082-.492.114-.926.347-.935.905-.009.667.557.539.968.567.634.041 1.145.361 1.656.685.543.343 1.086.677 1.716.837.228.059.475.091.639-.146.141-.206.027-.407-.073-.567-.812-1.289-1.953-2.103-3.44-2.359v-.004zm51.725-73.552c1.022-1.412.79-3.744-.402-4.8-.42-.374-.903-.415-1.42-.315-.287.055-.487.229-.542.53-.046.27.082.471.324.563.694.265.871.882 1.077 1.494.278.828.474 1.687.958 2.532l.005-.004zM168.416 189.93c0-2.212-.858-4.086-2.072-5.827a.921.921 0 0 0-.31-.252c-.182-.105-.388-.151-.57-.014-.201.147-.174.362-.092.554.817 1.956 1.607 3.926 3.044 5.539zm-23.067 29.893c1.15-.233 2.51-.599 3.737-1.349.219-.132.552-.279.479-.58-.091-.38-.488-.297-.771-.302-1.451-.014-2.761.562-4.098 1.015-.31.105-.639.347-.515.759.132.42.52.484 1.163.457h.005zm-69.996-99.852c-1.122-1.248-2.806-1.65-4.353-2.308-.502-.215-1.214-.64-1.506.055-.279.653.556.813.995 1.042 1.542.809 3.185 1.289 4.864 1.211zm8.912-20.321a2.336 2.336 0 0 0-1.104-1.07c-1.136-.53-2.36-.809-3.56-1.152-.388-.11-.908-.228-1.081.224-.192.503.351.663.698.823 1.579.722 3.25 1.088 5.047 1.175zm84.293 80.997c-.192-2.198-1.15-3.762-2.492-5.133-.201-.205-.502-.269-.73-.046-.242.238-.091.494.055.732.556.923 1.099 1.856 1.665 2.774.352.567.63 1.198 1.502 1.669v.004zm-1.808 78.054c.051.434.074.873.16 1.298.055.256.192.571.502.553.383-.018.269-.397.315-.635.246-1.353.31-2.747.908-4.022.137-.288.142-.636-.187-.8-.333-.165-.589.091-.748.347a5.998 5.998 0 0 0-.95 3.259zM16.624 84.275c-.01-1.143-1.424-2.944-2.565-3.277-.278-.083-.543-.124-.734.141-.187.256-.119.54.068.75a159.45 159.45 0 0 0 2.514 2.77c.124.132.375.278.516.237.283-.082.174-.393.196-.617l.005-.004zM96.358 31.99c-.019-.37.027-.735-.333-.84-.37-.106-.548.237-.653.502a38.918 38.918 0 0 0-.93 2.56c-.101.306-.165.713.218.896.393.187.634-.124.803-.42.493-.86.726-1.806.89-2.702l.005.005zm7.255 5.01c-.009-.201 0-.407-.242-.503-.21-.078-.438-.05-.561.1-.703.823-1.287 1.72-1.57 2.775-.1.37.083.503.448.375.543-.197 1.921-2.157 1.925-2.747zm63.115 155.678c.369-.969.041-2.888-.589-3.519-.187-.188-.383-.265-.634-.201-.187.05-.251.187-.288.37-.123.612.94 2.985 1.511 3.35zm-78.94-99.065c-.63-.933-1.565-1.047-2.528-1.074-.425-.014-.876.059-.927.57-.054.581.43.714.877.769.876.114 1.738.06 2.578-.27v.005zm9.505-58.4c.721-.037 1.825-1.49 1.638-2.176-.118-.43-.429-.69-.821-.375-.662.535-1.136 1.23-1.296 2.094-.064.352.142.489.48.457zm10.897 73.227c-.201-.708-.251-1.536-.639-2.262-.091-.174-.21-.361-.461-.32-.26.045-.305.256-.296.461.045.85.242 1.664.639 2.423.109.205.269.429.556.306.224-.096.178-.338.197-.608h.004zm2.432.731c-.278-.489.115-1.439-.725-1.631-.498-.115-.634.53-.575.969.077.576.059 1.302.821 1.439.434.083.502-.338.479-.781v.004zM45.5 115.698l-.246.078c0 .53-.005 1.056 0 1.586.004.375.242.631.52.809.242.156.338-.132.434-.279.214-.32.584-.63.25-1.065-.3-.393-.638-.754-.962-1.129h.004zm124.39 145.719c-.064-.512.141-1.225-.653-1.257-.584-.023-.584.553-.575.992.014.558.105 1.225.731 1.275.629.05.424-.617.497-1.01zm-44.378-194.31c-.054-.128-.123-.256-.278-.178-.096.05-.233.16-.233.238 0 .114.114.205.279.187.164-.018.182-.142.228-.247h.004z" fill="#000"></path><path d="M165.391 105.103c-.146-.489-.333-.877-.94-1.01-.516-.109-1.013-.388-1.461-.681-2.655-1.737-5.462-3.281-7.702-5.567-2.939-2.998-4.272-6.733-4.696-10.841-.233-2.236-.287-4.48.539-6.61.935-2.413 2.546-4.32 4.7-5.759.543-.36.661.023.684.43.05.877.046 1.76.078 2.637.013.32-.151.494-.402.64-.826.475-1.487 1.55-2.678.686-.16-.12-.493-.12-.653.1a.487.487 0 0 0 .073.654c1.086.96.758 2.276.958 3.478.771 4.667 2.172 9.036 6.252 11.97 2.469 1.774 4.915 3.607 7.812 4.667.52.192 1.018.38 1.534.01 2.578.745 5.183 1.252 7.885.85.511-.073.976-.064 1.433.288a178.277 178.277 0 0 0 4.38 3.281c.516.375.621.65.014 1.029-.972.612-1.921 1.257-2.875 1.897-.333.224-.698.228-1.068.237-4.494.078-8.884-.466-13.082-2.18-.247-.1-.521-.142-.781-.206h-.004zM84.452 31.387c-.1 0-.214.032-.301-.005-.548-.242-1.524.668-1.68-.57-.2-1.619.516-3.008 1.584-3.246 1.533-.338 4.011 1.156 4.454 2.665.183.621-.141.79-.648.845-1.136.12-2.259.407-3.413.316l.004-.005z" fill="#EE3330"></path></g><defs><clipPath id="h01e9dj4ca"><path fill="#fff" d="M0 0h247v311H0z"></path></clipPath></defs></svg> 